<?xml version="1.0" encoding="UTF-8"?>
<svg width="38px" height="24px" viewBox="0 0 38 24" version="1.1" xmlns="http://www.w3.org/2000/svg" xmlns:xlink="http://www.w3.org/1999/xlink">
    <!-- Generator: Sketch 54.1 (76490) - https://sketchapp.com -->
    <title>amex-color</title>
    <desc>Created with Sketch.</desc>
    <g id="Footer" stroke="none" stroke-width="1" fill="none" fill-rule="evenodd">
        <g id="VM_Footer_D_V3_PaymentOptions" transform="translate(-1256.000000, -567.000000)" fill-rule="nonzero">
            <g id="Payment-options" transform="translate(952.000000, 563.000000)">
                <g id="amex-color" transform="translate(304.000000, 4.000000)">
                    <rect id="Rectangle" fill="#00ADEF" x="0" y="0" width="38" height="24" rx="5"></rect>
                    <path d="M18.66,9.5 L18,9.5 L16.51,12.69 L15,9.5 L13,9.5 L13,13.73 L11.08,9.5 L9.18,9.5 L7,14.5 L8.49,14.5 L8.94,13.39 L11.28,13.39 L11.76,14.5 L14.25,14.5 L14.25,10.89 L15.92,14.5 L17.13,14.5 L18.66,11.19 L18.66,14.5 L20,14.5 L20,9.5 L18.66,9.5 Z M9.41,12.25 L10.08,10.59 L10.79,12.25 L9.41,12.25 Z" id="Shape" fill="#FFFFFF"></path>
                    <path d="M31,9.5 L29.24,9.5 L27.82,11 L26.43,9.5 L20.92,9.5 L20.92,14.5 L26.32,14.5 L27.8,12.92 L29.24,14.5 L31,14.5 L28.69,12 L31,9.5 Z M25,14 L25,13.35 L22.21,13.35 L22.21,12.56 L25,12.56 L25,11.43 L22.21,11.43 L22.21,10.64 L25,10.64 L25,9.89 L26.93,12 L25,14 Z" id="Shape" fill="#FFFFFF"></path>
                </g>
            </g>
        </g>
    </g>
</svg>