<?xml version="1.0" encoding="UTF-8"?>
<svg width="38px" height="25px" viewBox="0 0 38 25" version="1.1" xmlns="http://www.w3.org/2000/svg" xmlns:xlink="http://www.w3.org/1999/xlink">
    <!-- Generator: Sketch 54.1 (76490) - https://sketchapp.com -->
    <title>ideal</title>
    <desc>Created with Sketch.</desc>
    <g id="Footer" stroke="none" stroke-width="1" fill="none" fill-rule="evenodd">
        <g id="VM_Footer_D_V3_PaymentOptions" transform="translate(-1160.000000, -567.000000)" fill-rule="nonzero">
            <g id="Payment-options" transform="translate(952.000000, 563.000000)">
                <g id="ideal" transform="translate(208.000000, 4.250000)">
                    <rect id="Rectangle" fill="#FFFFFF" x="0" y="0" width="38" height="24" rx="6.66000009"></rect>
                    <path d="M8.72957244,2.6218 L20.4820556,2.6218 C28.4588084,2.6218 31.516314,6.842575 31.516314,12.166975 C31.516314,18.5514625 27.2466736,21.7550125 20.4820556,21.7550125 L8.72957244,21.7550125 L8.72957244,2.6218 Z M9.86890952,3.7257625 L9.86890952,20.651725 L20.4820556,20.651725 C26.8896511,20.651725 30.375932,17.758675 30.375932,12.166975 C30.375932,6.4203625 26.5967185,3.725425 20.4820556,3.725425 L9.86890952,3.725425 L9.86890952,3.7257625 Z" id="Shape" fill="#000000"></path>
                    <polygon id="Path" fill="#000000" points="11.2928196 13.411675 14.6902803 13.411675 14.6902803 19.270675 11.2928196 19.270675"></polygon>
                    <ellipse id="Oval" fill="#000000" cx="12.9912017" cy="10.4595625" rx="2.11148315" ry="2.045925"></ellipse>
                    <path d="M21.8150556,11.4167125 L21.8150556,12.365425 L19.3942691,12.365425 L19.3942691,8.558425 L21.7377297,8.558425 L21.7377297,9.5068 L20.3730331,9.5068 L20.3730331,9.947575 L21.6635387,9.947575 L21.6635387,10.8962875 L20.3730331,10.8962875 L20.3730331,11.41705 L21.8150556,11.4167125 Z M22.2386062,12.3661 L23.4232241,8.557075 L24.8157859,8.557075 L26.0000556,12.3661 L24.9812354,12.3661 L24.7590106,11.6293375 L23.4786062,11.6293375 L23.2560331,12.3661 L22.2386062,12.3661 L22.2386062,12.3661 Z M23.7656174,10.6816375 L24.4740893,10.6816375 L24.1491118,9.6056875 L24.0898983,9.6056875 L23.7656174,10.6816375 Z M26.4922241,8.5574125 L27.4716848,8.5574125 L27.4716848,11.41705 L28.9213702,11.41705 C28.5235949,6.228325 24.3117747,5.10715 20.4824039,5.10715 L16.4012017,5.10715 L16.4012017,8.5594375 L17.0051792,8.5594375 C18.10655,8.5594375 18.7902915,9.2830375 18.7902915,10.4474125 C18.7902915,11.6489125 18.1229208,12.3661 17.0051792,12.3661 L16.4012017,12.3661 L16.4012017,19.273375 L20.4827522,19.273375 C26.705741,19.273375 28.8729545,16.4728 28.9495837,12.365425 L26.4922241,12.365425 L26.4922241,8.5574125 L26.4922241,8.5574125 Z M16.400505,9.5078125 L16.400505,11.41705 L17.0051792,11.41705 C17.4242017,11.41705 17.8115275,11.2996 17.8115275,10.447075 C17.8115275,9.6144625 17.3806623,9.5078125 17.0051792,9.5078125 L16.400505,9.5078125 L16.400505,9.5078125 Z" id="Shape" fill="#D50072"></path>
                </g>
            </g>
        </g>
    </g>
</svg>