<?xml version="1.0" encoding="UTF-8"?>
<svg width="38px" height="24px" viewBox="0 0 38 24" version="1.1" xmlns="http://www.w3.org/2000/svg" xmlns:xlink="http://www.w3.org/1999/xlink">
    <!-- Generator: Sketch 54.1 (76490) - https://sketchapp.com -->
    <title>paypal-color</title>
    <desc>Created with Sketch.</desc>
    <g id="Footer" stroke="none" stroke-width="1" fill="none" fill-rule="evenodd">
        <g id="VM_Footer_D_V3_PaymentOptions" transform="translate(-1352.000000, -567.000000)" fill-rule="nonzero">
            <g id="Payment-options" transform="translate(952.000000, 563.000000)">
                <g id="paypal-color" transform="translate(400.000000, 4.000000)">
                    <rect id="Rectangle" fill="#FFFFFF" x="0.5" y="0.5" width="37" height="23" rx="4.5"></rect>
                    <path d="M33,1 C35.209139,1 37,2.790861 37,5 L37,19 C37,21.209139 35.209139,23 33,23 L5,23 C2.790861,23 1,21.209139 1,19 L1,5 C1,2.790861 2.790861,1 5,1 L33,1 L33,1 Z M33,0 L5,0 C2.23857625,1.77635684e-15 3.38176876e-16,2.23857625 0,5 L0,19 C3.38176876e-16,21.7614237 2.23857625,24 5,24 L33,24 C35.7614237,24 38,21.7614237 38,19 L38,5 C38,2.23857625 35.7614237,1.77635684e-15 33,0 Z" id="Shape" fill="#F7F7F7"></path>
                    <path d="M10.42,9 C10.0185101,8.61082346 9.46664759,8.41712336 8.91,8.47 L6.91,8.47 C6.76580826,8.47279472 6.64400939,8.57779375 6.62,8.72 L5.73,14 C5.72428611,14.0510977 5.74069651,14.1021998 5.77509211,14.1404171 C5.8094877,14.1786344 5.85858483,14.2003185 5.91,14.2 L6.91,14.2 C7.03239386,14.1947153 7.13927807,14.1155418 7.18,14 L7.4,12.56 C7.41538824,12.4171808 7.53635656,12.3091734 7.68,12.31 L8.33,12.31 C8.91119073,12.3771534 9.49417351,12.1999801 9.93971782,11.8207934 C10.3852621,11.4416068 10.6533661,10.8944509 10.68,10.31 C10.7940857,9.85643616 10.6986556,9.37561519 10.42,9 Z M9.15,10.39 C9.04,11.13 8.47,11.13 7.93,11.13 L7.62,11.13 L7.83,9.74 C7.8441036,9.65611143 7.91500817,9.59354857 8,9.59 L8.14,9.59 C8.51,9.59 8.87,9.59 9.04,9.8 C9.16616689,9.96897147 9.2068006,10.186916 9.15,10.39 Z" id="Shape" fill="#253B80"></path>
                    <path d="M15.09,10.36 L14.09,10.36 C14.0066669,10.3645404 13.9349134,10.4203486 13.91,10.5 L13.91,10.79 L13.84,10.68 C13.5334039,10.3713116 13.1022162,10.2202116 12.67,10.27 C11.5392249,10.296202 10.5986009,11.1474455 10.46,12.27 C10.3576747,12.8094752 10.4924753,13.3668938 10.83,13.8 C11.1470107,14.1508799 11.6084543,14.3354574 12.08,14.3 C12.5925043,14.3054931 13.0845625,14.0992628 13.44,13.73 L13.44,14.02 C13.4340885,14.1158815 13.5045111,14.1995083 13.6,14.21 L14.49,14.21 C14.634044,14.216607 14.7595521,14.1127383 14.78,13.97 L15.31,10.56 C15.3330266,10.4986516 15.3163182,10.4294636 15.2678318,10.385385 C15.2193454,10.3413065 15.1488828,10.3312481 15.09,10.36 Z M12.59,13.25 C12.3426217,13.2636624 12.1015944,13.1687123 11.93,12.99 C11.78243,12.7848958 11.7246676,12.5285752 11.77,12.28 C11.8354306,11.7147282 12.3109889,11.2862974 12.88,11.28 C13.1310439,11.2686051 13.3737328,11.371564 13.54,11.56 C13.7059398,11.7524175 13.7692011,12.0129054 13.71,12.26 C13.6481226,12.8295995 13.1628873,13.2585128 12.59,13.25 Z" id="Shape" fill="#253B80"></path>
                    <path d="M20.35,10.36 L19.35,10.36 C19.2528655,10.358767 19.1620327,10.4079682 19.11,10.49 L17.74,12.49 L17.16,10.54 C17.1214011,10.4171673 17.0087271,10.3326618 16.88,10.33 L15.88,10.33 C15.8240191,10.32969 15.7714741,10.3569607 15.7395049,10.4029164 C15.7075357,10.4488722 15.7002409,10.5076212 15.72,10.56 L16.81,13.8 L15.81,15.26 C15.7721078,15.312078 15.7668987,15.3810975 15.7965452,15.4382728 C15.8261917,15.4954482 15.8856027,15.530961 15.95,15.53 L16.95,15.53 C17.0456209,15.5353968 17.1369449,15.4897348 17.19,15.41 L20.49,10.6 C20.5129598,10.549734 20.5100543,10.4914446 20.4822097,10.443711 C20.4543651,10.3959774 20.4050563,10.3647566 20.35,10.36 Z" id="Path" fill="#253B80"></path>
                    <path d="M25.15,9 C24.7477882,8.61199288 24.1964803,8.41848746 23.64,8.47 L21.57,8.47 C21.4283568,8.46961091 21.3104916,8.57874536 21.3,8.72 L20.45,14 C20.4442861,14.0510977 20.4606965,14.1021998 20.4950921,14.1404171 C20.5294877,14.1786344 20.5785848,14.2003185 20.63,14.2 L21.69,14.2 C21.7892504,14.1955203 21.8701659,14.1188635 21.88,14.02 L22.12,12.51 C22.1395414,12.3693551 22.2580483,12.2635453 22.4,12.26 L23.06,12.26 C23.6399774,12.3211353 24.2196558,12.1417914 24.6637784,11.7638146 C25.1079011,11.3858379 25.3776194,10.842291 25.41,10.26 C25.4997619,9.8221166 25.4057632,9.36658456 25.15,9 Z M23.87,10.42 C23.77,11.16 23.2,11.16 22.65,11.16 L22.34,11.16 L22.56,9.77 C22.5625708,9.72753481 22.5819478,9.68784189 22.6138481,9.65969456 C22.6457484,9.63154723 22.6875452,9.61726332 22.73,9.62 L22.88,9.62 C23.25,9.62 23.6,9.62 23.78,9.83 C23.890133,9.99464794 23.922997,10.1991347 23.87,10.39 L23.87,10.42 Z" id="Shape" fill="#179BD7"></path>
                    <path d="M29.81,10.36 L28.81,10.36 C28.7243217,10.3578631 28.6490189,10.4164319 28.63,10.5 L28.63,10.79 L28.56,10.68 C28.2581608,10.370333 27.8293921,10.2187855 27.4,10.27 C26.2692249,10.296202 25.3286009,11.1474455 25.19,12.27 C25.0764844,12.8096984 25.2124195,13.3718086 25.56,13.8 C25.8720904,14.1518473 26.3311377,14.3369471 26.8,14.3 C27.3152755,14.3047056 27.8101316,14.0988165 28.17,13.73 L28.17,14.02 C28.1642603,14.0684383 28.1796036,14.1170085 28.2121279,14.1533592 C28.2446523,14.18971 28.291224,14.2103389 28.34,14.21 L29.23,14.21 C29.3702768,14.2114378 29.4899668,14.1088464 29.51,13.97 L30,10.56 C30.010146,10.5062925 29.9938498,10.4509823 29.9562045,10.4113557 C29.9185592,10.3717291 29.8641569,10.3526198 29.81,10.36 L29.81,10.36 Z M27.32,13.25 C27.0694231,13.2652771 26.8246804,13.1703023 26.65,12.99 C26.5014046,12.7853901 26.4468636,12.5272293 26.5,12.28 C26.5563533,11.7140948 27.0313006,11.2823245 27.6,11.28 C27.8583949,11.257256 28.1114914,11.3628098 28.2771584,11.5624085 C28.4428254,11.7620073 28.4999519,12.0302162 28.43,12.28 C28.3678719,12.8424385 27.8856911,13.2638037 27.32,13.25 Z" id="Shape" fill="#179BD7"></path>
                    <path d="M32.1,8.44 L31.1,8.44 C31.0151222,8.43404079 30.9404269,8.49555459 30.93,8.58 L30.13,14 C30.1210277,14.0500087 30.1348933,14.1014092 30.1677986,14.1401212 C30.2007038,14.1788332 30.2491991,14.2007985 30.3,14.2 L31.15,14.2 C31.2902768,14.2014378 31.4099668,14.0988464 31.43,13.96 L32.27,8.63 C32.2757397,8.5815617 32.2603964,8.53299154 32.2278721,8.49664077 C32.1953477,8.46029 32.148776,8.43966113 32.1,8.44 L32.1,8.44 Z" id="Path" fill="#179BD7"></path>
                </g>
            </g>
        </g>
    </g>
</svg>