<svg xmlns="http://www.w3.org/2000/svg" id="vanmoof-logo" viewBox="0 0 138 16"><g><g><g><path fill="currentColor" d="M137.315 0H122.11c-.166 0-.3.132-.3.295v15.163c0 .163.137.3.3.3h1.058a.298.298 0 0 0 .297-.3V8.93c0-.126.103-.228.23-.228h6.543a.3.3 0 0 0 .297-.301V7.352a.298.298 0 0 0-.297-.298h-6.543c-.13 0-.23-.1-.23-.226V1.876c0-.129.1-.23.23-.23h13.621a.299.299 0 0 0 .297-.3V.296a.296.296 0 0 0-.297-.295"/></g><g><path fill="currentColor" d="M32.792 15.716c.025.05.034.1.026.143-.017.086-.093.139-.2.139H31.4c-.136 0-.306-.048-.342-.125l-.003-.006c-.02-.043-.063-.128-.11-.218l-.057-.114-1.306-2.602h-9.323l-1.311 2.602-.146.292-.024.046c-.037.077-.207.125-.342.125h-1.218c-.105 0-.18-.053-.197-.139a.23.23 0 0 1 .025-.142l.076-.153c.063-.125.15-.296.209-.407l7.094-14.104c.036-.076.087-.178.137-.277l.092-.186.12-.236c.035-.073.085-.114.14-.114h.002c.056 0 .107.04.144.115l.117.235.235.463 7.094 14.105c.043.08.099.19.152.297l.084.166zM24.995 3.893c-.023-.047-.053-.074-.08-.074-.029 0-.059.027-.083.075L21.14 11.25h7.55z"/></g><g><path fill="currentColor" d="M75.594.48c.019-.065.012-.125-.02-.17-.034-.045-.09-.07-.16-.07h-1.201c-.147 0-.296.055-.334.123v.002l-.167.328-5.793 11.512c-.023.048-.054.075-.083.075-.03 0-.06-.027-.082-.075L61.958.692c-.054-.102-.116-.224-.152-.296L61.79.365c-.035-.07-.184-.125-.34-.125h-1.199c-.076 0-.118.03-.14.055a.17.17 0 0 0-.035.13h-.002c-.007.009-.02.023-.02.044V15.46c0 .162.132.294.294.294h1.036a.295.295 0 0 0 .296-.294V3.689l5.67 11.26c.043.094.115.234.173.347l.054.107.116.223c.034.073.085.114.142.114.058 0 .11-.04.146-.114l.115-.224.225-.453 5.666-11.247v11.759c0 .162.13.294.292.294h1.041c.16 0 .294-.135.294-.294V.532c0-.02-.01-.036-.016-.046l-.004-.005"/></g><g><path fill="currentColor" d="M52.95.058h-1.038a.298.298 0 0 0-.297.298v11.916c0 .067-.019.099-.036.106-.02.009-.055-.008-.092-.044L38.581.29a17.32 17.32 0 0 1-.244-.231C38.288.012 38.1 0 37.997 0h-.023c-.162 0-.289.1-.289.227v15.284c0 .131.13.238.29.238h1.039c.161 0 .293-.107.293-.238V3.481c0-.053.014-.092.037-.101.023-.01.058.006.096.042l12.902 12.044.157.148.088.082c.05.045.23.062.34.062h.024c.162 0 .294-.103.294-.229V.356a.3.3 0 0 0-.294-.298"/></g><g><path fill="currentColor" d="M15.779.083C15.745.029 15.682 0 15.602 0h-1.216c-.148 0-.302.055-.345.122l-.002.004a18.657 18.657 0 0 0-.166.34l-5.886 11.7c-.025.047-.056.073-.085.073-.029 0-.058-.027-.08-.072L1.932.466a128.58 128.58 0 0 0-.17-.342C1.721.05 1.55 0 1.416 0H.197C.119 0 .057.03.024.084-.01.138-.008.209.03.28l.047.097C.11.448.157.54.203.63c.04.077.076.15.105.208l7.103 14.116.23.457.119.235c.035.071.085.11.14.111h.003c.056 0 .108-.039.145-.11l.118-.237.107-.213.123-.243 7.1-14.116c.062-.127.162-.327.23-.459l.05-.098c.036-.072.036-.144.003-.198"/></g><g><path fill="currentColor" d="M109.044 0c4.356 0 7.9 3.536 7.9 7.883 0 2.025-.77 3.951-2.17 5.424a7.874 7.874 0 0 1-5.28 2.45h-.903a7.874 7.874 0 0 1-5.281-2.45 7.844 7.844 0 0 1-2.169-5.424c0-2.107.821-4.089 2.313-5.579A7.845 7.845 0 0 1 109.044 0m0 15.73c.15 0 .3-.005.449-.013h-.9c.15.008.3.012.45.012m4.359-3.493a6.109 6.109 0 0 0 1.805-4.353 6.1 6.1 0 0 0-1.805-4.353 6.139 6.139 0 0 0-4.363-1.804c-1.653 0-3.205.64-4.37 1.803a6.105 6.105 0 0 0-1.807 4.354c0 1.644.642 3.19 1.807 4.353a6.158 6.158 0 0 0 4.37 1.806 6.14 6.14 0 0 0 4.363-1.806"/></g><g><path fill="currentColor" d="M108.92 15.762c.164 0 .326-.005.487-.013h-.973c.161.008.323.013.487.013"/></g><g><path fill="currentColor" d="M88.624 0c4.357 0 7.901 3.536 7.901 7.883 0 2.025-.77 3.951-2.17 5.424a7.874 7.874 0 0 1-5.28 2.45h-.903a7.874 7.874 0 0 1-5.281-2.45 7.844 7.844 0 0 1-2.169-5.424c0-2.107.821-4.089 2.313-5.579A7.845 7.845 0 0 1 88.625 0m-.003 15.73c.15 0 .3-.005.45-.013h-.9c.149.008.299.012.45.012m4.392-3.472a6.137 6.137 0 0 0 1.813-4.374c0-1.654-.64-3.206-1.813-4.374a6.18 6.18 0 0 0-4.392-1.812 6.198 6.198 0 0 0-4.398 1.812 6.146 6.146 0 0 0-1.815 4.374c0 1.651.646 3.204 1.815 4.374a6.202 6.202 0 0 0 4.398 1.814 6.183 6.183 0 0 0 4.392-1.814"/></g><g><path fill="currentColor" d="M88.627 1.696c1.653 0 3.217.641 4.386 1.81a6.125 6.125 0 0 1 1.81 4.371c0 1.65-.64 3.2-1.81 4.37a6.173 6.173 0 0 1-4.386 1.813 6.191 6.191 0 0 1-6.204-6.183c0-1.653.646-3.203 1.812-4.37a6.187 6.187 0 0 1 4.392-1.811m4.368 10.53A6.1 6.1 0 0 0 94.8 7.877c0-1.647-.641-3.192-1.805-4.35a6.14 6.14 0 0 0-4.362-1.801c-1.652 0-3.204.64-4.369 1.801a6.097 6.097 0 0 0-1.807 4.35c0 1.642.642 3.187 1.807 4.35a6.159 6.159 0 0 0 4.37 1.803c1.644 0 3.193-.64 4.361-1.804"/></g><g><path fill="currentColor" d="M88.502 15.762c.163 0 .325-.005.486-.013h-.973c.161.008.323.013.487.013"/></g></g></g></svg>